<svg id="LOGO_HPC_Maths_MONOCHROME_BLANC" data-name="LOGO HPC@Maths MONOCHROME BLANC" xmlns="http://www.w3.org/2000/svg" viewBox="0 0 71.34 34.56"><defs><style>.cls-1{opacity:0.8;}.cls-2{fill:none;stroke:#fff;stroke-miterlimit:10;stroke-width:0.5px;}.cls-3,.cls-4,.cls-5{fill:#fff;}.cls-4{opacity:0.7;}.cls-5{opacity:0.4;}</style></defs><g id="spirale" class="cls-1"><path class="cls-2" d="M19,13.41a.72.72,0,0,0-.22-.08v.37h.38A.31.31,0,0,0,19,13.41Z" transform="translate(-0.65 -0.74)"/><path class="cls-2" d="M17.47,15.33a2.39,2.39,0,0,0,1.88,1.31h.08V14.7h-2A1.71,1.71,0,0,0,17.47,15.33Z" transform="translate(-0.65 -0.74)"/><path class="cls-2" d="M19.43,13.1h-.17a.58.58,0,0,1,.17.18Z" transform="translate(-0.65 -0.74)"/><rect class="cls-2" x="18.15" y="13.33" width="0.63" height="0.25"/><path class="cls-2" d="M17.94,13.1h-.73v.79A1.85,1.85,0,0,1,17.94,13.1Z" transform="translate(-0.65 -0.74)"/><path class="cls-2" d="M17.21,15.67v1.1h1.28A2.32,2.32,0,0,1,17.21,15.67Z" transform="translate(-0.65 -0.74)"/><path class="cls-2" d="M18.21,7a9.45,9.45,0,0,0-1-.17v5.86h6v-.56C22.89,9.62,20.43,7.57,18.21,7Z" transform="translate(-0.65 -0.74)"/><path class="cls-2" d="M19.81,16.66a4.21,4.21,0,0,0,2.09-.82,4.27,4.27,0,0,0,1.33-2.67V13.1H19.81Z" transform="translate(-0.65 -0.74)"/><path class="cls-2" d="M9,24.77A16.56,16.56,0,0,0,20.3,33.29a15.49,15.49,0,0,0,2.24.32h.69V17.15H7.08A17.45,17.45,0,0,0,9,24.77Z" transform="translate(-0.65 -0.74)"/><path class="cls-2" d="M17.45,14.33h1v-1a1.1,1.1,0,0,0-.29.09A1.42,1.42,0,0,0,17.45,14.33Z" transform="translate(-0.65 -0.74)"/><path class="cls-2" d="M16.83,6.84a8.33,8.33,0,0,0-1.67.07c-3.29.47-5.79,3.28-7,5.74a10,10,0,0,0-1,4.12h9.74Z" transform="translate(-0.65 -0.74)"/></g><g id="points"><path class="cls-3" d="M4.3,25.68a.63.63,0,0,1,.86.17.59.59,0,0,1-.11.85.64.64,0,0,1-.86-.17A.61.61,0,0,1,4.3,25.68Z" transform="translate(-0.65 -0.74)"/><path class="cls-3" d="M5.47,27.21a.59.59,0,0,1,.82.08.57.57,0,0,1,0,.81A.58.58,0,0,1,5.45,28,.57.57,0,0,1,5.47,27.21Z" transform="translate(-0.65 -0.74)"/><path class="cls-3" d="M6.77,28.61a.54.54,0,0,1,.75,0,.55.55,0,0,1,.05.76.55.55,0,0,1-.8-.76Z" transform="translate(-0.65 -0.74)"/><path class="cls-3" d="M8.14,29.86a.52.52,0,0,1,.82.65.49.49,0,0,1-.71.06A.52.52,0,0,1,8.14,29.86Z" transform="translate(-0.65 -0.74)"/><path class="cls-3" d="M9.61,31a.48.48,0,0,1,.67-.12.51.51,0,0,1,.16.68.47.47,0,0,1-.66.11A.5.5,0,0,1,9.61,31Z" transform="translate(-0.65 -0.74)"/><path class="cls-3" d="M11.17,32a.44.44,0,0,1,.61-.16.47.47,0,0,1,.22.62.44.44,0,0,1-.62.17A.49.49,0,0,1,11.17,32Z" transform="translate(-0.65 -0.74)"/><path class="cls-3" d="M12.8,32.86a.42.42,0,0,1,.57-.21.46.46,0,0,1,.24.58.4.4,0,0,1-.56.21A.47.47,0,0,1,12.8,32.86Z" transform="translate(-0.65 -0.74)"/><path class="cls-3" d="M14.49,33.59a.38.38,0,0,1,.51-.25.45.45,0,0,1,.29.53.39.39,0,0,1-.51.24A.44.44,0,0,1,14.49,33.59Z" transform="translate(-0.65 -0.74)"/><path class="cls-3" d="M16.23,34.16a.37.37,0,0,1,.46-.28.43.43,0,0,1,.31.48.37.37,0,0,1-.46.28A.42.42,0,0,1,16.23,34.16Z" transform="translate(-0.65 -0.74)"/><path class="cls-3" d="M18,34.58a.35.35,0,0,1,.41-.3.4.4,0,0,1,.33.43.33.33,0,0,1-.41.3A.4.4,0,0,1,18,34.58Z" transform="translate(-0.65 -0.74)"/><path class="cls-3" d="M19.77,34.85a.33.33,0,0,1,.36-.32.39.39,0,0,1,.35.38.32.32,0,0,1-.36.32A.38.38,0,0,1,19.77,34.85Z" transform="translate(-0.65 -0.74)"/><path class="cls-3" d="M21.56,35a.31.31,0,0,1,.31-.33.36.36,0,0,1,.36.34.31.31,0,0,1-.31.33A.36.36,0,0,1,21.56,35Z" transform="translate(-0.65 -0.74)"/><path class="cls-3" d="M23.34,34.92a.29.29,0,0,1,.27-.34.34.34,0,0,1,.36.29.29.29,0,0,1-.27.34A.34.34,0,0,1,23.34,34.92Z" transform="translate(-0.65 -0.74)"/><path class="cls-3" d="M25.1,34.72a.28.28,0,0,1,.22-.35.35.35,0,0,1,.37.25.28.28,0,0,1-.23.35A.32.32,0,0,1,25.1,34.72Z" transform="translate(-0.65 -0.74)"/><path class="cls-3" d="M26.82,34.37A.27.27,0,0,1,27,34a.3.3,0,0,1,.36.2.27.27,0,0,1-.18.36A.31.31,0,0,1,26.82,34.37Z" transform="translate(-0.65 -0.74)"/><path class="cls-3" d="M28.49,33.87a.28.28,0,0,1,.14-.36.3.3,0,0,1,.36.17.25.25,0,0,1-.14.35A.29.29,0,0,1,28.49,33.87Z" transform="translate(-0.65 -0.74)"/><path class="cls-3" d="M30.11,33.21a.24.24,0,0,1,.1-.34.27.27,0,0,1,.35.12.25.25,0,0,1-.1.35A.27.27,0,0,1,30.11,33.21Z" transform="translate(-0.65 -0.74)"/><path class="cls-3" d="M3.34,24.13a.58.58,0,0,1,.76.23.52.52,0,0,1-.18.74.58.58,0,0,1-.75-.23A.53.53,0,0,1,3.34,24.13Z" transform="translate(-0.65 -0.74)"/><path class="cls-3" d="M2.53,22.5a.51.51,0,0,1,.65.27A.45.45,0,0,1,3,23.4a.52.52,0,0,1-.65-.27A.45.45,0,0,1,2.53,22.5Z" transform="translate(-0.65 -0.74)"/><path class="cls-3" d="M1.88,20.8a.46.46,0,0,1,.56.3.4.4,0,0,1-.26.53.46.46,0,0,1-.56-.29A.41.41,0,0,1,1.88,20.8Z" transform="translate(-0.65 -0.74)"/><path class="cls-3" d="M1.4,19.05a.42.42,0,0,1,.47.31.36.36,0,0,1-.28.45.41.41,0,0,1-.47-.31A.35.35,0,0,1,1.4,19.05Z" transform="translate(-0.65 -0.74)"/><path class="cls-3" d="M1.09,17.27a.39.39,0,0,1,.39.32.32.32,0,0,1-.29.37.38.38,0,0,1-.4-.32A.33.33,0,0,1,1.09,17.27Z" transform="translate(-0.65 -0.74)"/><path class="cls-3" d="M1,15.48a.34.34,0,0,1,.32.32.28.28,0,0,1-.29.3.35.35,0,0,1-.33-.32A.29.29,0,0,1,1,15.48Z" transform="translate(-0.65 -0.74)"/><path class="cls-3" d="M1,13.69a.3.3,0,0,1,.26.31.26.26,0,0,1-.29.24.3.3,0,0,1-.26-.31A.26.26,0,0,1,1,13.69Z" transform="translate(-0.65 -0.74)"/><path class="cls-3" d="M1.22,11.93a.26.26,0,0,1,.2.29.23.23,0,0,1-.28.19.28.28,0,0,1-.21-.3A.23.23,0,0,1,1.22,11.93Z" transform="translate(-0.65 -0.74)"/><path class="cls-3" d="M1.62,10.2a.22.22,0,0,1,.15.28.2.2,0,0,1-.27.13.24.24,0,0,1-.15-.28A.2.2,0,0,1,1.62,10.2Z" transform="translate(-0.65 -0.74)"/><path class="cls-3" d="M2.2,8.53a.2.2,0,0,1,.11.26.19.19,0,0,1-.25.1A.22.22,0,0,1,2,8.62.18.18,0,0,1,2.2,8.53Z" transform="translate(-0.65 -0.74)"/><path class="cls-3" d="M3,6.94A.18.18,0,0,1,3,7.18a.17.17,0,0,1-.24.06A.18.18,0,0,1,2.72,7,.16.16,0,0,1,3,6.94Z" transform="translate(-0.65 -0.74)"/><path class="cls-3" d="M2.15,17.83a.63.63,0,0,1,.68.5.54.54,0,0,1-.45.65.63.63,0,0,1-.68-.5A.54.54,0,0,1,2.15,17.83Z" transform="translate(-0.65 -0.74)"/><path class="cls-3" d="M2.53,19.57a.59.59,0,0,1,.68.41.51.51,0,0,1-.36.66.6.6,0,0,1-.69-.41A.51.51,0,0,1,2.53,19.57Z" transform="translate(-0.65 -0.74)"/><path class="cls-3" d="M3.07,21.28a.56.56,0,0,1,.69.32.49.49,0,0,1-.28.66.55.55,0,0,1-.68-.32A.48.48,0,0,1,3.07,21.28Z" transform="translate(-0.65 -0.74)"/><path class="cls-3" d="M3.79,22.93a.52.52,0,0,1,.68.24.48.48,0,0,1-.2.66.53.53,0,0,1-.67-.24A.47.47,0,0,1,3.79,22.93Z" transform="translate(-0.65 -0.74)"/><path class="cls-3" d="M4.68,24.51a.48.48,0,0,1,.65.16.44.44,0,0,1-.12.64.48.48,0,0,1-.65-.16A.44.44,0,0,1,4.68,24.51Z" transform="translate(-0.65 -0.74)"/><path class="cls-3" d="M5.71,26a.46.46,0,0,1,.63.09.44.44,0,0,1,0,.63.46.46,0,0,1-.63-.09A.44.44,0,0,1,5.71,26Z" transform="translate(-0.65 -0.74)"/><path class="cls-3" d="M6.88,27.37a.43.43,0,0,1,.6,0A.4.4,0,1,1,6.9,28,.42.42,0,0,1,6.88,27.37Z" transform="translate(-0.65 -0.74)"/><path class="cls-3" d="M8.16,28.61a.38.38,0,0,1,.55,0,.4.4,0,0,1,.06.55.39.39,0,0,1-.55,0A.4.4,0,0,1,8.16,28.61Z" transform="translate(-0.65 -0.74)"/><path class="cls-3" d="M9.51,29.73a.37.37,0,0,1,.52-.06.37.37,0,0,1,.1.52.36.36,0,0,1-.51.07A.4.4,0,0,1,9.51,29.73Z" transform="translate(-0.65 -0.74)"/><path class="cls-3" d="M11,30.74a.35.35,0,0,1,.48-.11.38.38,0,0,1,.14.49.33.33,0,0,1-.48.11A.36.36,0,0,1,11,30.74Z" transform="translate(-0.65 -0.74)"/><path class="cls-3" d="M12.47,31.62a.33.33,0,0,1,.45-.14.35.35,0,0,1,.17.46.32.32,0,0,1-.44.14A.37.37,0,0,1,12.47,31.62Z" transform="translate(-0.65 -0.74)"/><path class="cls-3" d="M14.05,32.37a.31.31,0,0,1,.41-.17.33.33,0,0,1,.2.42.31.31,0,0,1-.41.17A.36.36,0,0,1,14.05,32.37Z" transform="translate(-0.65 -0.74)"/><path class="cls-3" d="M15.68,33a.29.29,0,0,1,.37-.2.32.32,0,0,1,.22.38.28.28,0,0,1-.36.2A.32.32,0,0,1,15.68,33Z" transform="translate(-0.65 -0.74)"/><path class="cls-3" d="M17.35,33.45a.26.26,0,0,1,.32-.22.32.32,0,0,1,.25.34.26.26,0,0,1-.33.22A.3.3,0,0,1,17.35,33.45Z" transform="translate(-0.65 -0.74)"/><path class="cls-3" d="M19,33.77a.25.25,0,0,1,.29-.23.29.29,0,0,1,.26.3.26.26,0,0,1-.29.24A.3.3,0,0,1,19,33.77Z" transform="translate(-0.65 -0.74)"/><path class="cls-3" d="M20.73,34A.24.24,0,0,1,21,33.7a.28.28,0,0,1,.27.27.24.24,0,0,1-.25.25A.28.28,0,0,1,20.73,34Z" transform="translate(-0.65 -0.74)"/><path class="cls-3" d="M22.42,34a.23.23,0,0,1,.22-.25.27.27,0,0,1,.28.23.23.23,0,0,1-.22.26A.27.27,0,0,1,22.42,34Z" transform="translate(-0.65 -0.74)"/><path class="cls-3" d="M24.1,33.85a.23.23,0,0,1,.19-.26.25.25,0,0,1,.27.2.22.22,0,0,1-.18.27A.27.27,0,0,1,24.1,33.85Z" transform="translate(-0.65 -0.74)"/><path class="cls-3" d="M25.76,33.59a.21.21,0,0,1,.15-.27.25.25,0,0,1,.28.17.22.22,0,0,1-.16.27A.24.24,0,0,1,25.76,33.59Z" transform="translate(-0.65 -0.74)"/><path class="cls-3" d="M27.37,33.17a.19.19,0,0,1,.12-.26.23.23,0,0,1,.28.14.2.2,0,0,1-.13.26A.21.21,0,0,1,27.37,33.17Z" transform="translate(-0.65 -0.74)"/><path class="cls-3" d="M2,16.17a.55.55,0,0,1,.56.5.48.48,0,0,1-.47.52.55.55,0,0,1-.56-.5A.46.46,0,0,1,2,16.17Z" transform="translate(-0.65 -0.74)"/><path class="cls-3" d="M1.94,14.49a.52.52,0,0,1,.46.5.42.42,0,0,1-.47.42.5.5,0,0,1-.45-.49A.43.43,0,0,1,1.94,14.49Z" transform="translate(-0.65 -0.74)"/><path class="cls-3" d="M2.08,12.83a.46.46,0,0,1,.37.48.39.39,0,0,1-.46.33.45.45,0,0,1-.36-.47A.38.38,0,0,1,2.08,12.83Z" transform="translate(-0.65 -0.74)"/><path class="cls-3" d="M2.39,11.2a.39.39,0,0,1,.28.46.34.34,0,0,1-.43.25A.39.39,0,0,1,2,11.45.34.34,0,0,1,2.39,11.2Z" transform="translate(-0.65 -0.74)"/><path class="cls-3" d="M2.87,9.62a.34.34,0,0,1,.21.42.31.31,0,0,1-.42.18.35.35,0,0,1-.21-.42A.31.31,0,0,1,2.87,9.62Z" transform="translate(-0.65 -0.74)"/><path class="cls-3" d="M3.5,8.09a.31.31,0,0,1,.15.4.29.29,0,0,1-.39.12.32.32,0,0,1-.14-.4A.27.27,0,0,1,3.5,8.09Z" transform="translate(-0.65 -0.74)"/><path class="cls-3" d="M4.3,6.64A.29.29,0,0,1,4.39,7,.24.24,0,0,1,4,7.08a.27.27,0,0,1-.1-.36A.26.26,0,0,1,4.3,6.64Z" transform="translate(-0.65 -0.74)"/><path class="cls-3" d="M5.24,5.3a.23.23,0,0,1,0,.32.22.22,0,0,1-.32,0,.23.23,0,0,1-.06-.32A.23.23,0,0,1,5.24,5.3Z" transform="translate(-0.65 -0.74)"/><path class="cls-3" d="M6.32,4.06A.2.2,0,1,1,6,4.35a.21.21,0,0,1,0-.29A.2.2,0,0,1,6.32,4.06Z" transform="translate(-0.65 -0.74)"/><path class="cls-3" d="M7.56,2.92a.19.19,0,0,1,0,.27.2.2,0,0,1-.27,0,.2.2,0,0,1,0-.27A.19.19,0,0,1,7.56,2.92Z" transform="translate(-0.65 -0.74)"/><path class="cls-3" d="M9,1.94a.18.18,0,0,1,0,.24.19.19,0,0,1-.24-.06.16.16,0,0,1,0-.24A.18.18,0,0,1,9,1.94Z" transform="translate(-0.65 -0.74)"/><path class="cls-3" d="M3.62,10.54a.58.58,0,0,1,.38.69.51.51,0,0,1-.67.34A.58.58,0,0,1,3,10.88.51.51,0,0,1,3.62,10.54Z" transform="translate(-0.65 -0.74)"/><path class="cls-3" d="M3.22,12.12a.55.55,0,0,1,.42.62.47.47,0,0,1-.59.38.56.56,0,0,1-.43-.62A.48.48,0,0,1,3.22,12.12Z" transform="translate(-0.65 -0.74)"/><path class="cls-3" d="M3,13.73a.53.53,0,0,1,.46.55.46.46,0,0,1-.52.43.54.54,0,0,1-.46-.55A.46.46,0,0,1,3,13.73Z" transform="translate(-0.65 -0.74)"/><path class="cls-3" d="M2.92,15.38a.49.49,0,0,1,.48.48.42.42,0,0,1-.44.45.52.52,0,0,1-.49-.48A.43.43,0,0,1,2.92,15.38Z" transform="translate(-0.65 -0.74)"/><path class="cls-3" d="M3,17a.48.48,0,0,1,.5.41.41.41,0,0,1-.37.47.48.48,0,0,1-.51-.41A.41.41,0,0,1,3,17Z" transform="translate(-0.65 -0.74)"/><path class="cls-3" d="M3.3,18.67a.45.45,0,0,1,.51.34.39.39,0,0,1-.3.49A.45.45,0,0,1,3,19.16.39.39,0,0,1,3.3,18.67Z" transform="translate(-0.65 -0.74)"/><path class="cls-3" d="M3.75,20.29a.43.43,0,0,1,.51.27.37.37,0,0,1-.24.5.42.42,0,0,1-.51-.28A.37.37,0,0,1,3.75,20.29Z" transform="translate(-0.65 -0.74)"/><path class="cls-3" d="M4.35,21.86a.41.41,0,0,1,.51.21.37.37,0,0,1-.17.5.41.41,0,0,1-.51-.21A.37.37,0,0,1,4.35,21.86Z" transform="translate(-0.65 -0.74)"/><path class="cls-3" d="M5.12,23.38a.36.36,0,0,1,.49.15A.33.33,0,0,1,5.5,24a.37.37,0,0,1-.5-.15A.33.33,0,0,1,5.12,23.38Z" transform="translate(-0.65 -0.74)"/><path class="cls-3" d="M6,24.81a.36.36,0,0,1,.48.1.33.33,0,0,1-.07.47A.35.35,0,0,1,6,25.29.35.35,0,0,1,6,24.81Z" transform="translate(-0.65 -0.74)"/><path class="cls-3" d="M7.07,26.15a.33.33,0,0,1,.46.05.32.32,0,0,1,0,.45.32.32,0,0,1-.46,0A.33.33,0,0,1,7.07,26.15Z" transform="translate(-0.65 -0.74)"/><path class="cls-3" d="M8.23,27.38a.32.32,0,0,1,.43,0,.29.29,0,1,1-.4.43A.31.31,0,0,1,8.23,27.38Z" transform="translate(-0.65 -0.74)"/><path class="cls-3" d="M9.48,28.49a.28.28,0,0,1,.4,0,.29.29,0,0,1,.06.41.28.28,0,0,1-.4,0A.3.3,0,0,1,9.48,28.49Z" transform="translate(-0.65 -0.74)"/><path class="cls-3" d="M10.81,29.5a.28.28,0,0,1,.47.31.26.26,0,0,1-.38.07A.28.28,0,0,1,10.81,29.5Z" transform="translate(-0.65 -0.74)"/><path class="cls-3" d="M12.22,30.39a.24.24,0,0,1,.34-.1.27.27,0,0,1,.12.36.24.24,0,0,1-.34.09A.26.26,0,0,1,12.22,30.39Z" transform="translate(-0.65 -0.74)"/><path class="cls-3" d="M13.69,31.16A.23.23,0,0,1,14,31a.26.26,0,0,1,.14.33.23.23,0,0,1-.32.11A.25.25,0,0,1,13.69,31.16Z" transform="translate(-0.65 -0.74)"/><path class="cls-3" d="M4.15,9.1a.52.52,0,0,1,.28.65A.45.45,0,0,1,3.8,10a.52.52,0,0,1-.28-.64A.46.46,0,0,1,4.15,9.1Z" transform="translate(-0.65 -0.74)"/><path class="cls-3" d="M4.83,7.73A.44.44,0,0,1,5,8.32a.4.4,0,0,1-.58.15.45.45,0,0,1-.19-.59A.41.41,0,0,1,4.83,7.73Z" transform="translate(-0.65 -0.74)"/><path class="cls-3" d="M5.66,6.44A.39.39,0,0,1,5.77,7a.38.38,0,0,1-.53.08.41.41,0,0,1-.12-.55A.38.38,0,0,1,5.66,6.44Z" transform="translate(-0.65 -0.74)"/><path class="cls-3" d="M6.61,5.24a.35.35,0,0,1,.06.49.35.35,0,0,1-.49,0,.35.35,0,0,1,0-.49A.33.33,0,0,1,6.61,5.24Z" transform="translate(-0.65 -0.74)"/><path class="cls-3" d="M7.7,4.14a.31.31,0,0,1,0,.44.32.32,0,0,1-.45,0,.33.33,0,0,1,0-.45A.32.32,0,0,1,7.7,4.14Z" transform="translate(-0.65 -0.74)"/><path class="cls-3" d="M8.94,3.17a.27.27,0,0,1,0,.39.29.29,0,0,1-.39-.07.28.28,0,0,1,0-.4A.3.3,0,0,1,8.94,3.17Z" transform="translate(-0.65 -0.74)"/><path class="cls-3" d="M10.3,2.35a.24.24,0,0,1-.09.34.25.25,0,0,1-.34-.11A.24.24,0,0,1,10,2.24.28.28,0,0,1,10.3,2.35Z" transform="translate(-0.65 -0.74)"/><path class="cls-3" d="M11.76,1.71a.22.22,0,0,1-.12.29.24.24,0,0,1-.29-.13.21.21,0,0,1,.11-.29A.24.24,0,0,1,11.76,1.71Z" transform="translate(-0.65 -0.74)"/><path class="cls-3" d="M13.3,1.25a.19.19,0,0,1-.13.24.22.22,0,0,1-.26-.15A.2.2,0,0,1,13,1.1.23.23,0,0,1,13.3,1.25Z" transform="translate(-0.65 -0.74)"/><path class="cls-3" d="M14.89,1a.16.16,0,0,1-.14.2A.2.2,0,0,1,14.54,1a.17.17,0,0,1,.14-.2A.2.2,0,0,1,14.89,1Z" transform="translate(-0.65 -0.74)"/><path class="cls-3" d="M16.53.9a.15.15,0,0,1-.15.16A.17.17,0,0,1,16.21.9a.14.14,0,0,1,.15-.16A.18.18,0,0,1,16.53.9Z" transform="translate(-0.65 -0.74)"/><path class="cls-3" d="M8,5.26A.52.52,0,0,1,8.05,6a.51.51,0,0,1-.72,0A.49.49,0,1,1,8,5.26Z" transform="translate(-0.65 -0.74)"/><path class="cls-3" d="M7,6.37a.49.49,0,0,1,.11.68.47.47,0,0,1-.67.06.49.49,0,0,1-.11-.68A.46.46,0,0,1,7,6.37Z" transform="translate(-0.65 -0.74)"/><path class="cls-3" d="M6.11,7.58a.48.48,0,0,1,.17.64.45.45,0,0,1-.63.13.49.49,0,0,1-.17-.64A.45.45,0,0,1,6.11,7.58Z" transform="translate(-0.65 -0.74)"/><path class="cls-3" d="M5.37,8.89a.46.46,0,0,1,.22.59A.42.42,0,0,1,5,9.66a.46.46,0,0,1-.22-.59A.42.42,0,0,1,5.37,8.89Z" transform="translate(-0.65 -0.74)"/><path class="cls-3" d="M4.77,10.28a.44.44,0,0,1,.27.54.4.4,0,0,1-.53.23.46.46,0,0,1-.26-.55A.38.38,0,0,1,4.77,10.28Z" transform="translate(-0.65 -0.74)"/><path class="cls-3" d="M4.33,11.73a.41.41,0,0,1,.3.48.37.37,0,0,1-.47.27.42.42,0,0,1-.3-.49A.37.37,0,0,1,4.33,11.73Z" transform="translate(-0.65 -0.74)"/><path class="cls-3" d="M4,13.22a.41.41,0,0,1,.33.44A.34.34,0,0,1,4,14a.4.4,0,0,1-.33-.44A.34.34,0,0,1,4,13.22Z" transform="translate(-0.65 -0.74)"/><path class="cls-3" d="M3.91,14.75a.4.4,0,0,1,.36.38.33.33,0,0,1-.36.33.39.39,0,0,1-.36-.38A.34.34,0,0,1,3.91,14.75Z" transform="translate(-0.65 -0.74)"/><path class="cls-3" d="M3.94,16.3a.36.36,0,0,1,.37.33A.31.31,0,0,1,4,17a.36.36,0,0,1-.37-.33A.3.3,0,0,1,3.94,16.3Z" transform="translate(-0.65 -0.74)"/><path class="cls-3" d="M4.13,17.84a.35.35,0,0,1,.38.28.31.31,0,0,1-.25.36.35.35,0,0,1-.38-.28A.29.29,0,0,1,4.13,17.84Z" transform="translate(-0.65 -0.74)"/><path class="cls-3" d="M4.48,19.36a.34.34,0,0,1,.38.23.29.29,0,0,1-.2.37.33.33,0,0,1-.38-.23A.29.29,0,0,1,4.48,19.36Z" transform="translate(-0.65 -0.74)"/><path class="cls-3" d="M5,20.86a.32.32,0,0,1,.38.18.28.28,0,0,1-.16.37.31.31,0,0,1-.38-.18A.27.27,0,0,1,5,20.86Z" transform="translate(-0.65 -0.74)"/><path class="cls-3" d="M5.62,22.3a.3.3,0,0,1,.38.13.27.27,0,0,1-.11.37.29.29,0,0,1-.37-.13A.26.26,0,0,1,5.62,22.3Z" transform="translate(-0.65 -0.74)"/><path class="cls-3" d="M6.41,23.68a.28.28,0,0,1,.37.09.26.26,0,0,1-.07.36A.27.27,0,0,1,6.35,24,.25.25,0,0,1,6.41,23.68Z" transform="translate(-0.65 -0.74)"/><path class="cls-3" d="M7.33,25a.26.26,0,0,1,.36.05.26.26,0,0,1,0,.35.26.26,0,0,1-.35-.06A.24.24,0,0,1,7.33,25Z" transform="translate(-0.65 -0.74)"/><path class="cls-3" d="M8.38,26.18a.24.24,0,0,1,.33,0,.25.25,0,0,1,0,.34.24.24,0,0,1-.34-.35Z" transform="translate(-0.65 -0.74)"/><path class="cls-3" d="M9.52,27.28a.22.22,0,0,1,.31,0,.23.23,0,0,1,0,.32.22.22,0,0,1-.31,0A.22.22,0,0,1,9.52,27.28Z" transform="translate(-0.65 -0.74)"/><path class="cls-3" d="M10.74,28.27a.2.2,0,0,1,.29,0,.23.23,0,0,1,.06.3.21.21,0,0,1-.29,0A.21.21,0,0,1,10.74,28.27Z" transform="translate(-0.65 -0.74)"/><path class="cls-3" d="M9.09,4.32a.45.45,0,0,1,0,.64.46.46,0,0,1-.65-.08.45.45,0,0,1,0-.64A.46.46,0,0,1,9.09,4.32Z" transform="translate(-0.65 -0.74)"/><path class="cls-3" d="M10.29,3.51a.4.4,0,0,1-.1.57.43.43,0,0,1-.57-.14.4.4,0,0,1,.1-.57A.44.44,0,0,1,10.29,3.51Z" transform="translate(-0.65 -0.74)"/><path class="cls-3" d="M11.59,2.86a.34.34,0,0,1-.15.48A.37.37,0,0,1,11,3.16a.35.35,0,0,1,.15-.49A.38.38,0,0,1,11.59,2.86Z" transform="translate(-0.65 -0.74)"/><path class="cls-3" d="M13,2.37a.31.31,0,0,1-.19.41.36.36,0,0,1-.42-.22.3.3,0,0,1,.19-.41A.34.34,0,0,1,13,2.37Z" transform="translate(-0.65 -0.74)"/><path class="cls-3" d="M14.43,2a.26.26,0,0,1-.21.34.31.31,0,0,1-.36-.23.27.27,0,0,1,.22-.34A.32.32,0,0,1,14.43,2Z" transform="translate(-0.65 -0.74)"/><path class="cls-3" d="M15.92,1.9a.23.23,0,0,1-.22.27.28.28,0,0,1-.29-.24.24.24,0,0,1,.22-.28A.27.27,0,0,1,15.92,1.9Z" transform="translate(-0.65 -0.74)"/><path class="cls-3" d="M17.44,1.93a.21.21,0,0,1-.23.22A.27.27,0,0,1,17,1.9a.22.22,0,0,1,.24-.22A.26.26,0,0,1,17.44,1.93Z" transform="translate(-0.65 -0.74)"/><path class="cls-3" d="M19,2.14a.2.2,0,0,1-.23.17.23.23,0,0,1-.19-.25.2.2,0,0,1,.23-.16A.23.23,0,0,1,19,2.14Z" transform="translate(-0.65 -0.74)"/><path class="cls-3" d="M20.45,2.52a.17.17,0,0,1-.22.13.21.21,0,0,1-.14-.24.19.19,0,0,1,.23-.12A.19.19,0,0,1,20.45,2.52Z" transform="translate(-0.65 -0.74)"/><path class="cls-3" d="M21.91,3.08a.15.15,0,0,1-.21.09A.18.18,0,0,1,21.6,3a.15.15,0,0,1,.21-.08A.16.16,0,0,1,21.91,3.08Z" transform="translate(-0.65 -0.74)"/><path class="cls-3" d="M23.3,3.81a.14.14,0,0,1-.2,0,.15.15,0,0,1-.06-.2.14.14,0,0,1,.2-.05A.15.15,0,0,1,23.3,3.81Z" transform="translate(-0.65 -0.74)"/><path class="cls-3" d="M14.16,3.11a.44.44,0,0,1-.31.57.5.5,0,0,1-.6-.35.44.44,0,0,1,.31-.57A.51.51,0,0,1,14.16,3.11Z" transform="translate(-0.65 -0.74)"/><path class="cls-3" d="M12.79,3.48a.42.42,0,0,1-.23.58A.47.47,0,0,1,12,3.8a.42.42,0,0,1,.22-.58A.48.48,0,0,1,12.79,3.48Z" transform="translate(-0.65 -0.74)"/><path class="cls-3" d="M11.48,4a.41.41,0,0,1-.14.58.45.45,0,0,1-.59-.18.42.42,0,0,1,.14-.58A.45.45,0,0,1,11.48,4Z" transform="translate(-0.65 -0.74)"/><path class="cls-3" d="M10.27,4.73a.39.39,0,0,1-.07.56.42.42,0,0,1-.57-.1.4.4,0,0,1,.07-.57A.41.41,0,0,1,10.27,4.73Z" transform="translate(-0.65 -0.74)"/><path class="cls-3" d="M9.16,5.58a.38.38,0,0,1,0,.54.38.38,0,0,1-.55,0,.38.38,0,1,1,.55-.51Z" transform="translate(-0.65 -0.74)"/><path class="cls-3" d="M8.17,6.56a.38.38,0,0,1,.06.52.36.36,0,0,1-.52,0,.37.37,0,0,1-.06-.52A.36.36,0,0,1,8.17,6.56Z" transform="translate(-0.65 -0.74)"/><path class="cls-3" d="M7.3,7.65a.36.36,0,0,1,.1.49.34.34,0,0,1-.48.07.36.36,0,0,1-.11-.49A.34.34,0,0,1,7.3,7.65Z" transform="translate(-0.65 -0.74)"/><path class="cls-3" d="M6.55,8.83a.34.34,0,0,1,.14.45.31.31,0,0,1-.44.12.35.35,0,0,1-.15-.46A.32.32,0,0,1,6.55,8.83Z" transform="translate(-0.65 -0.74)"/><path class="cls-3" d="M5.93,10.09a.33.33,0,0,1,.18.42.3.3,0,0,1-.41.15.34.34,0,0,1-.18-.42A.3.3,0,0,1,5.93,10.09Z" transform="translate(-0.65 -0.74)"/><path class="cls-3" d="M5.45,11.41a.34.34,0,0,1,.22.39A.28.28,0,0,1,5.3,12a.31.31,0,0,1-.21-.38A.27.27,0,0,1,5.45,11.41Z" transform="translate(-0.65 -0.74)"/><path class="cls-3" d="M5.12,12.79a.31.31,0,0,1,.24.34.27.27,0,0,1-.33.22A.32.32,0,0,1,4.79,13,.27.27,0,0,1,5.12,12.79Z" transform="translate(-0.65 -0.74)"/><path class="cls-3" d="M4.93,14.2a.3.3,0,0,1,.26.31.25.25,0,0,1-.29.23.29.29,0,0,1-.25-.3A.26.26,0,0,1,4.93,14.2Z" transform="translate(-0.65 -0.74)"/><path class="cls-3" d="M4.9,15.64a.26.26,0,0,1,.26.26.22.22,0,0,1-.24.25.28.28,0,0,1-.27-.26A.24.24,0,0,1,4.9,15.64Z" transform="translate(-0.65 -0.74)"/><path class="cls-3" d="M5,17.08a.26.26,0,0,1,.28.22.23.23,0,0,1-.2.27.26.26,0,0,1-.28-.23A.22.22,0,0,1,5,17.08Z" transform="translate(-0.65 -0.74)"/><path class="cls-3" d="M5.26,18.51a.25.25,0,0,1,.28.19.22.22,0,0,1-.17.27.25.25,0,0,1-.28-.19A.22.22,0,0,1,5.26,18.51Z" transform="translate(-0.65 -0.74)"/><path class="cls-3" d="M5.66,19.92a.22.22,0,0,1,.28.15.19.19,0,0,1-.13.27.23.23,0,0,1-.28-.15A.2.2,0,0,1,5.66,19.92Z" transform="translate(-0.65 -0.74)"/><path class="cls-3" d="M6.2,21.29a.22.22,0,0,1,.28.11.2.2,0,0,1-.1.28.23.23,0,0,1-.28-.12A.2.2,0,0,1,6.2,21.29Z" transform="translate(-0.65 -0.74)"/><path class="cls-3" d="M6.88,22.6a.21.21,0,0,1,.27.08.19.19,0,0,1-.06.27.21.21,0,0,1-.28-.08A.19.19,0,0,1,6.88,22.6Z" transform="translate(-0.65 -0.74)"/><path class="cls-3" d="M7.68,23.85a.18.18,0,0,1,.26,0,.18.18,0,0,1,0,.26.2.2,0,0,1-.27-.05A.19.19,0,0,1,7.68,23.85Z" transform="translate(-0.65 -0.74)"/><path class="cls-3" d="M8.6,25a.18.18,0,0,1,.25,0,.17.17,0,0,1,0,.25.19.19,0,0,1-.26,0A.18.18,0,0,1,8.6,25Z" transform="translate(-0.65 -0.74)"/><path class="cls-3" d="M15.51,2.92a.4.4,0,0,1-.34.47.47.47,0,0,1-.5-.37A.4.4,0,0,1,15,2.54.48.48,0,0,1,15.51,2.92Z" transform="translate(-0.65 -0.74)"/><path class="cls-3" d="M16.88,2.88a.34.34,0,0,1-.35.38.42.42,0,0,1-.41-.38.36.36,0,0,1,.36-.38A.4.4,0,0,1,16.88,2.88Z" transform="translate(-0.65 -0.74)"/><path class="cls-3" d="M18.27,3a.31.31,0,0,1-.36.29.37.37,0,0,1-.32-.37.32.32,0,0,1,.36-.3A.37.37,0,0,1,18.27,3Z" transform="translate(-0.65 -0.74)"/><path class="cls-3" d="M19.65,3.3a.28.28,0,0,1-.35.22.33.33,0,0,1-.25-.37.28.28,0,0,1,.35-.22A.34.34,0,0,1,19.65,3.3Z" transform="translate(-0.65 -0.74)"/><path class="cls-3" d="M21,3.74a.26.26,0,0,1-.34.16.29.29,0,0,1-.18-.35.25.25,0,0,1,.33-.16A.3.3,0,0,1,21,3.74Z" transform="translate(-0.65 -0.74)"/><path class="cls-3" d="M22.3,4.34a.23.23,0,0,1-.32.1.24.24,0,0,1-.12-.32.21.21,0,0,1,.31-.1A.25.25,0,0,1,22.3,4.34Z" transform="translate(-0.65 -0.74)"/><path class="cls-3" d="M23.53,5.09a.2.2,0,0,1-.29,0,.23.23,0,0,1-.08-.3.22.22,0,0,1,.3,0A.22.22,0,0,1,23.53,5.09Z" transform="translate(-0.65 -0.74)"/><path class="cls-3" d="M24.68,6a.19.19,0,0,1-.27,0,.19.19,0,0,1,0-.27.19.19,0,0,1,.27,0A.19.19,0,0,1,24.68,6Z" transform="translate(-0.65 -0.74)"/><path class="cls-3" d="M25.73,7a.17.17,0,1,1,0-.24A.16.16,0,0,1,25.73,7Z" transform="translate(-0.65 -0.74)"/><path class="cls-3" d="M26.65,8.11a.16.16,0,0,1-.22,0,.14.14,0,0,1,0-.21.15.15,0,0,1,.21,0A.14.14,0,0,1,26.65,8.11Z" transform="translate(-0.65 -0.74)"/><path class="cls-3" d="M27.4,9.35a.13.13,0,0,1-.18-.06.12.12,0,0,1,.05-.18.14.14,0,0,1,.19.06A.13.13,0,0,1,27.4,9.35Z" transform="translate(-0.65 -0.74)"/><path class="cls-3" d="M20.24,4.49a.4.4,0,0,1-.52.29.47.47,0,0,1-.32-.55A.39.39,0,0,1,19.92,4,.46.46,0,0,1,20.24,4.49Z" transform="translate(-0.65 -0.74)"/><path class="cls-3" d="M18.94,4.12a.38.38,0,0,1-.45.34A.45.45,0,0,1,18.12,4a.38.38,0,0,1,.46-.33A.45.45,0,0,1,18.94,4.12Z" transform="translate(-0.65 -0.74)"/><path class="cls-3" d="M17.62,3.91a.36.36,0,0,1-.39.37.42.42,0,0,1-.4-.41.36.36,0,0,1,.39-.37A.42.42,0,0,1,17.62,3.91Z" transform="translate(-0.65 -0.74)"/><path class="cls-3" d="M16.29,3.87a.34.34,0,0,1-.32.39.4.4,0,0,1-.42-.35.35.35,0,0,1,.32-.4A.41.41,0,0,1,16.29,3.87Z" transform="translate(-0.65 -0.74)"/><path class="cls-3" d="M15,4a.33.33,0,0,1-.26.41.38.38,0,0,1-.43-.29.33.33,0,0,1,.26-.41A.39.39,0,0,1,15,4Z" transform="translate(-0.65 -0.74)"/><path class="cls-3" d="M13.7,4.25a.31.31,0,0,1-.19.42.36.36,0,0,1-.44-.22.32.32,0,0,1,.2-.42A.34.34,0,0,1,13.7,4.25Z" transform="translate(-0.65 -0.74)"/><path class="cls-3" d="M12.48,4.68a.29.29,0,0,1-.13.42.33.33,0,0,1-.43-.16.29.29,0,0,1,.13-.42A.32.32,0,0,1,12.48,4.68Z" transform="translate(-0.65 -0.74)"/><path class="cls-3" d="M11.34,5.26a.29.29,0,0,1-.08.41.31.31,0,0,1-.42-.1.29.29,0,0,1,.07-.42A.33.33,0,0,1,11.34,5.26Z" transform="translate(-0.65 -0.74)"/><path class="cls-3" d="M10.28,6a.29.29,0,0,1,0,.4.29.29,0,0,1-.41,0,.27.27,0,0,1,0-.4A.29.29,0,0,1,10.28,6Z" transform="translate(-0.65 -0.74)"/><path class="cls-3" d="M9.32,6.83a.27.27,0,0,1,0,.39.28.28,0,0,1-.4,0,.29.29,0,0,1,0-.4A.27.27,0,0,1,9.32,6.83Z" transform="translate(-0.65 -0.74)"/><path class="cls-3" d="M8.46,7.79a.27.27,0,0,1,.06.38.26.26,0,0,1-.37,0,.27.27,0,0,1-.06-.37A.27.27,0,0,1,8.46,7.79Z" transform="translate(-0.65 -0.74)"/><path class="cls-3" d="M7.72,8.85a.26.26,0,0,1,.09.35.25.25,0,0,1-.35.07.26.26,0,0,1-.09-.35A.24.24,0,0,1,7.72,8.85Z" transform="translate(-0.65 -0.74)"/><path class="cls-3" d="M7.09,10a.25.25,0,0,1,.12.32.23.23,0,0,1-.32.1.26.26,0,0,1-.12-.33A.23.23,0,0,1,7.09,10Z" transform="translate(-0.65 -0.74)"/><path class="cls-3" d="M6.59,11.19a.23.23,0,0,1,.14.29.2.2,0,0,1-.28.13.25.25,0,0,1-.15-.3A.22.22,0,0,1,6.59,11.19Z" transform="translate(-0.65 -0.74)"/><path class="cls-3" d="M6.22,12.44a.24.24,0,0,1,.16.27.19.19,0,0,1-.25.15A.23.23,0,0,1,6,12.59.21.21,0,0,1,6.22,12.44Z" transform="translate(-0.65 -0.74)"/><path class="cls-3" d="M6,13.74a.23.23,0,0,1,.18.24.19.19,0,0,1-.22.17.23.23,0,0,1-.19-.24A.2.2,0,0,1,6,13.74Z" transform="translate(-0.65 -0.74)"/><path class="cls-3" d="M5.88,15.07a.21.21,0,0,1,.2.21.18.18,0,0,1-.2.17.19.19,0,0,1-.19-.21A.17.17,0,0,1,5.88,15.07Z" transform="translate(-0.65 -0.74)"/><path class="cls-3" d="M5.92,16.4a.2.2,0,0,1,.2.18.17.17,0,0,1-.17.19.2.2,0,0,1-.2-.18A.17.17,0,0,1,5.92,16.4Z" transform="translate(-0.65 -0.74)"/><path class="cls-3" d="M6.09,17.74a.18.18,0,0,1,.21.15.16.16,0,0,1-.14.19.17.17,0,0,1-.2-.15A.16.16,0,0,1,6.09,17.74Z" transform="translate(-0.65 -0.74)"/><path class="cls-3" d="M6.4,19.05a.19.19,0,0,1,.21.13.15.15,0,0,1-.11.2.19.19,0,0,1-.21-.13A.17.17,0,0,1,6.4,19.05Z" transform="translate(-0.65 -0.74)"/><path class="cls-3" d="M21.44,5a.37.37,0,0,1-.5.2.41.41,0,0,1-.23-.52.36.36,0,0,1,.5-.19A.42.42,0,0,1,21.44,5Z" transform="translate(-0.65 -0.74)"/><path class="cls-3" d="M22.58,5.61a.34.34,0,0,1-.47.11A.35.35,0,0,1,22,5.25a.33.33,0,0,1,.47-.12A.36.36,0,0,1,22.58,5.61Z" transform="translate(-0.65 -0.74)"/><path class="cls-3" d="M23.65,6.36a.3.3,0,0,1-.43,0A.31.31,0,0,1,23.14,6a.3.3,0,0,1,.43-.06A.32.32,0,0,1,23.65,6.36Z" transform="translate(-0.65 -0.74)"/><path class="cls-3" d="M24.64,7.23a.28.28,0,1,1,0-.39A.27.27,0,0,1,24.64,7.23Z" transform="translate(-0.65 -0.74)"/><path class="cls-3" d="M25.52,8.2a.24.24,0,0,1-.34,0,.24.24,0,0,1,0-.34.24.24,0,0,1,.34.05A.24.24,0,0,1,25.52,8.2Z" transform="translate(-0.65 -0.74)"/><path class="cls-3" d="M26.26,9.27a.23.23,0,0,1-.3-.08.21.21,0,0,1,.06-.3.23.23,0,0,1,.3.08A.21.21,0,0,1,26.26,9.27Z" transform="translate(-0.65 -0.74)"/><path class="cls-3" d="M26.85,10.42a.21.21,0,0,1-.26-.11.19.19,0,0,1,.1-.25.2.2,0,0,1,.25.11A.18.18,0,0,1,26.85,10.42Z" transform="translate(-0.65 -0.74)"/><path class="cls-3" d="M27.28,11.64a.18.18,0,0,1-.21-.13.16.16,0,0,1,.11-.21.2.2,0,0,1,.22.13A.17.17,0,0,1,27.28,11.64Z" transform="translate(-0.65 -0.74)"/><path class="cls-3" d="M27.54,12.9a.17.17,0,0,1-.17-.14.14.14,0,0,1,.13-.17.16.16,0,0,1,.17.14A.14.14,0,0,1,27.54,12.9Z" transform="translate(-0.65 -0.74)"/><path class="cls-3" d="M27.63,14.17a.15.15,0,0,1-.14-.15.13.13,0,0,1,.14-.13.16.16,0,0,1,.14.15A.13.13,0,0,1,27.63,14.17Z" transform="translate(-0.65 -0.74)"/><path class="cls-3" d="M27.54,15.43a.13.13,0,0,1-.1-.15.1.1,0,0,1,.13-.09.12.12,0,0,1,.11.14A.12.12,0,0,1,27.54,15.43Z" transform="translate(-0.65 -0.74)"/><path class="cls-3" d="M24.49,8.45a.4.4,0,0,1-.55-.58.39.39,0,0,1,.55,0A.38.38,0,0,1,24.49,8.45Z" transform="translate(-0.65 -0.74)"/><path class="cls-3" d="M23.62,7.58a.36.36,0,0,1-.52,0A.37.37,0,0,1,23,7.08a.36.36,0,0,1,.52,0A.37.37,0,0,1,23.62,7.58Z" transform="translate(-0.65 -0.74)"/><path class="cls-3" d="M22.65,6.8a.35.35,0,0,1-.49.09.38.38,0,0,1-.13-.5.35.35,0,0,1,.49-.09A.38.38,0,0,1,22.65,6.8Z" transform="translate(-0.65 -0.74)"/><path class="cls-3" d="M21.6,6.14a.33.33,0,0,1-.45.14A.37.37,0,0,1,21,5.82a.33.33,0,0,1,.45-.14A.37.37,0,0,1,21.6,6.14Z" transform="translate(-0.65 -0.74)"/><path class="cls-3" d="M20.48,5.61a.31.31,0,0,1-.4.19.36.36,0,0,1-.22-.42.3.3,0,0,1,.4-.19A.35.35,0,0,1,20.48,5.61Z" transform="translate(-0.65 -0.74)"/><path class="cls-3" d="M19.31,5.21a.28.28,0,0,1-.35.23.33.33,0,0,1-.25-.37.28.28,0,0,1,.35-.23A.33.33,0,0,1,19.31,5.21Z" transform="translate(-0.65 -0.74)"/><path class="cls-3" d="M18.12,5a.27.27,0,0,1-.31.26.32.32,0,0,1-.27-.33.26.26,0,0,1,.3-.25A.32.32,0,0,1,18.12,5Z" transform="translate(-0.65 -0.74)"/><path class="cls-3" d="M16.92,4.85a.26.26,0,0,1-.26.28.3.3,0,0,1-.3-.28.25.25,0,0,1,.26-.27A.31.31,0,0,1,16.92,4.85Z" transform="translate(-0.65 -0.74)"/><path class="cls-3" d="M15.72,4.89a.24.24,0,0,1-.21.29A.28.28,0,0,1,15.2,5a.24.24,0,0,1,.21-.29A.29.29,0,0,1,15.72,4.89Z" transform="translate(-0.65 -0.74)"/><path class="cls-3" d="M14.54,5.07a.24.24,0,0,1-.16.31.27.27,0,0,1-.31-.19.23.23,0,0,1,.16-.3A.27.27,0,0,1,14.54,5.07Z" transform="translate(-0.65 -0.74)"/><path class="cls-3" d="M13.41,5.4a.23.23,0,0,1-.12.31A.26.26,0,0,1,13,5.57a.23.23,0,0,1,.12-.31A.25.25,0,0,1,13.41,5.4Z" transform="translate(-0.65 -0.74)"/><path class="cls-3" d="M12.34,5.86a.22.22,0,0,1-.07.31.24.24,0,0,1-.31-.1.2.2,0,0,1,.07-.3A.23.23,0,0,1,12.34,5.86Z" transform="translate(-0.65 -0.74)"/><path class="cls-3" d="M11.34,6.46a.21.21,0,0,1,0,.3A.22.22,0,0,1,11,6.7a.21.21,0,0,1,0-.3A.22.22,0,0,1,11.34,6.46Z" transform="translate(-0.65 -0.74)"/><path class="cls-3" d="M10.43,7.18a.19.19,0,1,1-.28.27.2.2,0,1,1,.28-.27Z" transform="translate(-0.65 -0.74)"/><path class="cls-3" d="M9.6,8a.19.19,0,1,1-.28,0A.19.19,0,0,1,9.6,8Z" transform="translate(-0.65 -0.74)"/><path class="cls-3" d="M8.87,9a.19.19,0,0,1,.05.26.18.18,0,0,1-.26,0A.19.19,0,0,1,8.6,9,.18.18,0,0,1,8.87,9Z" transform="translate(-0.65 -0.74)"/><path class="cls-3" d="M8.24,10a.19.19,0,0,1,.07.25.17.17,0,0,1-.24.06A.19.19,0,0,1,8,10,.19.19,0,0,1,8.24,10Z" transform="translate(-0.65 -0.74)"/><path class="cls-3" d="M7.72,11.05a.19.19,0,0,1,.1.23.17.17,0,0,1-.22.08.18.18,0,0,1-.1-.23A.16.16,0,0,1,7.72,11.05Z" transform="translate(-0.65 -0.74)"/><path class="cls-3" d="M7.32,12.19a.18.18,0,0,1,.12.21.17.17,0,0,1-.2.1.18.18,0,0,1-.12-.21A.15.15,0,0,1,7.32,12.19Z" transform="translate(-0.65 -0.74)"/><path class="cls-3" d="M7.05,13.37a.16.16,0,0,1,.12.18.14.14,0,0,1-.17.12.17.17,0,0,1-.13-.19A.14.14,0,0,1,7.05,13.37Z" transform="translate(-0.65 -0.74)"/><path class="cls-3" d="M25.19,9.36a.35.35,0,0,1-.48-.1.32.32,0,0,1,.06-.47.35.35,0,0,1,.48.1A.32.32,0,0,1,25.19,9.36Z" transform="translate(-0.65 -0.74)"/><path class="cls-3" d="M25.76,10.35a.33.33,0,0,1-.42-.15.28.28,0,0,1,.12-.4.33.33,0,0,1,.42.14A.29.29,0,0,1,25.76,10.35Z" transform="translate(-0.65 -0.74)"/><path class="cls-3" d="M26.2,11.4a.31.31,0,0,1-.36-.18.26.26,0,0,1,.16-.34.29.29,0,0,1,.35.18A.25.25,0,0,1,26.2,11.4Z" transform="translate(-0.65 -0.74)"/><path class="cls-3" d="M26.49,12.5a.26.26,0,0,1-.29-.21.22.22,0,0,1,.18-.27.26.26,0,0,1,.29.2A.23.23,0,0,1,26.49,12.5Z" transform="translate(-0.65 -0.74)"/><path class="cls-3" d="M26.63,13.62a.24.24,0,0,1-.23-.22.2.2,0,0,1,.19-.22.25.25,0,0,1,.24.22A.2.2,0,0,1,26.63,13.62Z" transform="translate(-0.65 -0.74)"/><path class="cls-3" d="M26.62,14.74a.2.2,0,0,1-.18-.22.16.16,0,0,1,.2-.16.2.2,0,0,1,.18.21A.17.17,0,0,1,26.62,14.74Z" transform="translate(-0.65 -0.74)"/><path class="cls-3" d="M26.45,15.84a.18.18,0,0,1-.13-.21.15.15,0,0,1,.2-.12.2.2,0,0,1,.14.21A.16.16,0,0,1,26.45,15.84Z" transform="translate(-0.65 -0.74)"/><path class="cls-3" d="M26.13,16.9a.17.17,0,0,1-.09-.21.15.15,0,0,1,.19-.08.18.18,0,0,1,.1.21A.16.16,0,0,1,26.13,16.9Z" transform="translate(-0.65 -0.74)"/><path class="cls-3" d="M25.66,17.89a.16.16,0,0,1-.06-.19.13.13,0,0,1,.19-.05.15.15,0,0,1,.06.19A.13.13,0,0,1,25.66,17.89Z" transform="translate(-0.65 -0.74)"/><path class="cls-3" d="M25.05,18.8a.14.14,0,0,1,0-.18.13.13,0,0,1,.2.16A.12.12,0,0,1,25.05,18.8Z" transform="translate(-0.65 -0.74)"/><path class="cls-3" d="M24.32,19.6a.11.11,0,0,1,0-.15.1.1,0,0,1,.15,0,.1.1,0,1,1-.15.14Z" transform="translate(-0.65 -0.74)"/><path class="cls-3" d="M25.62,13.25a.37.37,0,0,1-.39-.31.3.3,0,0,1,.28-.36.36.36,0,0,1,.39.3A.32.32,0,0,1,25.62,13.25Z" transform="translate(-0.65 -0.74)"/><path class="cls-3" d="M25.43,12.23A.35.35,0,0,1,25,12a.3.3,0,0,1,.22-.38.33.33,0,0,1,.39.23A.29.29,0,0,1,25.43,12.23Z" transform="translate(-0.65 -0.74)"/><path class="cls-3" d="M25.11,11.24a.33.33,0,0,1-.41-.18.29.29,0,0,1,.15-.39.32.32,0,0,1,.4.18A.29.29,0,0,1,25.11,11.24Z" transform="translate(-0.65 -0.74)"/><path class="cls-3" d="M24.65,10.3a.3.3,0,0,1-.4-.11.27.27,0,0,1,.08-.39.3.3,0,0,1,.4.11A.28.28,0,0,1,24.65,10.3Z" transform="translate(-0.65 -0.74)"/><path class="cls-3" d="M24.06,9.42a.28.28,0,0,1-.39-.05.26.26,0,0,1,0-.38.27.27,0,0,1,.38,0A.27.27,0,0,1,24.06,9.42Z" transform="translate(-0.65 -0.74)"/><path class="cls-3" d="M23.35,8.63a.29.29,0,1,1,0-.39A.27.27,0,0,1,23.35,8.63Z" transform="translate(-0.65 -0.74)"/><path class="cls-3" d="M22.51,7.88a.25.25,0,0,1-.36,0,.28.28,0,0,1-.08-.37.27.27,0,0,1,.37,0A.26.26,0,0,1,22.51,7.88Z" transform="translate(-0.65 -0.74)"/><path class="cls-3" d="M21.59,7.24a.23.23,0,0,1-.33.09A.27.27,0,0,1,21.15,7a.24.24,0,0,1,.34-.09A.25.25,0,0,1,21.59,7.24Z" transform="translate(-0.65 -0.74)"/><path class="cls-3" d="M20.62,6.72a.23.23,0,0,1-.31.11.25.25,0,0,1-.14-.31.23.23,0,0,1,.31-.12A.27.27,0,0,1,20.62,6.72Z" transform="translate(-0.65 -0.74)"/><path class="cls-3" d="M19.59,6.31a.21.21,0,0,1-.27.15.25.25,0,0,1-.17-.29A.2.2,0,0,1,19.42,6,.24.24,0,0,1,19.59,6.31Z" transform="translate(-0.65 -0.74)"/><path class="cls-3" d="M18.53,6a.21.21,0,0,1-.24.18A.24.24,0,0,1,18.1,6a.2.2,0,0,1,.24-.18A.26.26,0,0,1,18.53,6Z" transform="translate(-0.65 -0.74)"/><path class="cls-3" d="M17.45,5.87a.2.2,0,0,1-.21.19.23.23,0,0,1-.2-.22.19.19,0,0,1,.2-.19A.24.24,0,0,1,17.45,5.87Z" transform="translate(-0.65 -0.74)"/><path class="cls-3" d="M16.36,5.84a.18.18,0,0,1-.16.21A.22.22,0,0,1,16,5.86a.18.18,0,0,1,.17-.2A.2.2,0,0,1,16.36,5.84Z" transform="translate(-0.65 -0.74)"/><path class="cls-3" d="M15.3,6a.17.17,0,0,1-.14.21A.2.2,0,0,1,14.94,6a.18.18,0,0,1,.13-.21A.21.21,0,0,1,15.3,6Z" transform="translate(-0.65 -0.74)"/><path class="cls-3" d="M14.26,6.18a.16.16,0,0,1-.1.22.17.17,0,0,1-.22-.12.15.15,0,0,1,.1-.21A.18.18,0,0,1,14.26,6.18Z" transform="translate(-0.65 -0.74)"/><path class="cls-3" d="M13.27,6.54a.15.15,0,0,1-.06.22A.18.18,0,0,1,13,6.68a.16.16,0,0,1,.07-.22A.17.17,0,0,1,13.27,6.54Z" transform="translate(-0.65 -0.74)"/><path class="cls-3" d="M12.35,7a.16.16,0,0,1,0,.22.17.17,0,0,1-.22-.06.15.15,0,0,1,0-.21A.16.16,0,0,1,12.35,7Z" transform="translate(-0.65 -0.74)"/><path class="cls-3" d="M11.49,7.62a.14.14,0,0,1,0,.21.15.15,0,0,1-.21,0,.14.14,0,0,1,0-.21A.15.15,0,0,1,11.49,7.62Z" transform="translate(-0.65 -0.74)"/><path class="cls-3" d="M10.71,8.32a.15.15,0,1,1-.2.21.15.15,0,0,1,0-.21A.15.15,0,0,1,10.71,8.32Z" transform="translate(-0.65 -0.74)"/><path class="cls-3" d="M10,9.15a.14.14,0,0,1,0,.2.13.13,0,0,1-.19,0,.15.15,0,0,1,0-.2A.14.14,0,0,1,10,9.15Z" transform="translate(-0.65 -0.74)"/><path class="cls-3" d="M25.65,14.22a.33.33,0,0,1-.3-.32.28.28,0,0,1,.3-.28.33.33,0,0,1,.3.32A.28.28,0,0,1,25.65,14.22Z" transform="translate(-0.65 -0.74)"/><path class="cls-3" d="M25.56,15.18a.28.28,0,0,1-.23-.31.24.24,0,0,1,.3-.21.28.28,0,0,1,.23.31A.24.24,0,0,1,25.56,15.18Z" transform="translate(-0.65 -0.74)"/><path class="cls-3" d="M25.34,16.12a.25.25,0,0,1-.17-.31.22.22,0,0,1,.29-.14.25.25,0,0,1,.17.3A.22.22,0,0,1,25.34,16.12Z" transform="translate(-0.65 -0.74)"/><path class="cls-3" d="M25,17a.21.21,0,0,1-.11-.28.19.19,0,0,1,.28-.09.21.21,0,0,1,.11.28A.19.19,0,0,1,25,17Z" transform="translate(-0.65 -0.74)"/><path class="cls-3" d="M24.5,17.83a.2.2,0,0,1-.06-.27.19.19,0,0,1,.26,0,.19.19,0,0,1,.06.26A.18.18,0,0,1,24.5,17.83Z" transform="translate(-0.65 -0.74)"/><path class="cls-3" d="M23.9,18.57a.17.17,0,1,1,.22-.25.17.17,0,0,1,0,.25A.17.17,0,0,1,23.9,18.57Z" transform="translate(-0.65 -0.74)"/><path class="cls-3" d="M23.24,19.18a.13.13,0,0,1,0-.2.15.15,0,0,1,.2,0,.14.14,0,0,1,0,.2A.13.13,0,0,1,23.24,19.18Z" transform="translate(-0.65 -0.74)"/><path class="cls-3" d="M22.49,19.66a.12.12,0,0,1,0-.17.12.12,0,0,1,.17.05.12.12,0,0,1,0,.17A.13.13,0,0,1,22.49,19.66Z" transform="translate(-0.65 -0.74)"/><path class="cls-3" d="M21.66,20a.12.12,0,0,1,.06-.15.13.13,0,0,1,.15.08.11.11,0,0,1-.06.14A.13.13,0,0,1,21.66,20Z" transform="translate(-0.65 -0.74)"/><path class="cls-3" d="M20.78,20.19a.09.09,0,0,1,.07-.11.1.1,0,0,1,.12.08.09.09,0,0,1-.07.12A.11.11,0,0,1,20.78,20.19Z" transform="translate(-0.65 -0.74)"/><path class="cls-3" d="M19.86,20.24a.09.09,0,0,1,.09-.09.1.1,0,0,1,.09.09.09.09,0,0,1-.08.09A.1.1,0,0,1,19.86,20.24Z" transform="translate(-0.65 -0.74)"/><path class="cls-3" d="M23.84,17a.3.3,0,0,1-.12-.4.28.28,0,0,1,.39-.09.3.3,0,0,1,.12.39A.28.28,0,0,1,23.84,17Z" transform="translate(-0.65 -0.74)"/><path class="cls-3" d="M24.23,16.22a.29.29,0,0,1-.17-.36.26.26,0,0,1,.35-.14.3.3,0,0,1,.17.36A.26.26,0,0,1,24.23,16.22Z" transform="translate(-0.65 -0.74)"/><path class="cls-3" d="M24.5,15.4a.27.27,0,0,1-.21-.32.24.24,0,0,1,.31-.18.28.28,0,0,1,.2.32A.23.23,0,0,1,24.5,15.4Z" transform="translate(-0.65 -0.74)"/><path class="cls-3" d="M24.64,14.55a.28.28,0,0,1-.23-.28.23.23,0,0,1,.26-.22.28.28,0,0,1,.24.28A.24.24,0,0,1,24.64,14.55Z" transform="translate(-0.65 -0.74)"/><path class="cls-3" d="M24.66,13.67a.26.26,0,0,1-.25-.24.22.22,0,0,1,.21-.24.27.27,0,0,1,.26.24A.22.22,0,0,1,24.66,13.67Z" transform="translate(-0.65 -0.74)"/><path class="cls-3" d="M24.56,12.79a.26.26,0,0,1-.27-.19.21.21,0,0,1,.17-.26.25.25,0,0,1,.27.19A.21.21,0,0,1,24.56,12.79Z" transform="translate(-0.65 -0.74)"/><path class="cls-3" d="M24.33,11.92a.22.22,0,0,1-.27-.14.19.19,0,0,1,.12-.26.21.21,0,0,1,.27.14A.19.19,0,0,1,24.33,11.92Z" transform="translate(-0.65 -0.74)"/><path class="cls-3" d="M24,11.09a.21.21,0,0,1-.28-.09.21.21,0,0,1,.08-.27.22.22,0,0,1,.28.1A.18.18,0,0,1,24,11.09Z" transform="translate(-0.65 -0.74)"/><path class="cls-3" d="M23.53,10.32a.2.2,0,0,1-.27-.06.18.18,0,0,1,0-.26.21.21,0,0,1,.27.05A.19.19,0,0,1,23.53,10.32Z" transform="translate(-0.65 -0.74)"/><path class="cls-3" d="M23,9.61a.19.19,0,0,1-.26,0,.18.18,0,0,1,0-.26.19.19,0,0,1,.26,0A.2.2,0,0,1,23,9.61Z" transform="translate(-0.65 -0.74)"/><path class="cls-3" d="M22.28,8.93a.2.2,0,0,1-.3-.25.18.18,0,0,1,.26,0A.19.19,0,0,1,22.28,8.93Z" transform="translate(-0.65 -0.74)"/><path class="cls-3" d="M21.49,8.32a.16.16,0,0,1-.24,0,.18.18,0,0,1-.07-.25.17.17,0,0,1,.25,0A.18.18,0,0,1,21.49,8.32Z" transform="translate(-0.65 -0.74)"/><path class="cls-3" d="M23.37,17.64a.27.27,0,0,1-.06-.37.25.25,0,0,1,.36,0,.26.26,0,0,1,.06.36A.25.25,0,0,1,23.37,17.64Z" transform="translate(-0.65 -0.74)"/><path class="cls-3" d="M22.82,18.2a.22.22,0,0,1,0-.3.21.21,0,0,1,.3,0,.21.21,0,1,1-.3.29Z" transform="translate(-0.65 -0.74)"/><path class="cls-3" d="M22.24,18.63a.17.17,0,0,1,0-.25.19.19,0,0,1,.26.05.17.17,0,0,1,0,.25A.19.19,0,0,1,22.24,18.63Z" transform="translate(-0.65 -0.74)"/><path class="cls-3" d="M21.6,19a.15.15,0,0,1,.07-.21.16.16,0,0,1,.21.08.15.15,0,0,1-.07.22A.17.17,0,0,1,21.6,19Z" transform="translate(-0.65 -0.74)"/><path class="cls-3" d="M20.89,19.16A.13.13,0,0,1,21,19a.14.14,0,0,1,.18.1.15.15,0,0,1-.09.18A.16.16,0,0,1,20.89,19.16Z" transform="translate(-0.65 -0.74)"/><path class="cls-3" d="M20.15,19.25a.12.12,0,0,1,.11-.14.15.15,0,0,1,.15.12.11.11,0,0,1-.11.14A.14.14,0,0,1,20.15,19.25Z" transform="translate(-0.65 -0.74)"/><path class="cls-3" d="M19.39,19.22a.12.12,0,0,1,.12-.11.14.14,0,0,1,.12.13.12.12,0,0,1-.12.11A.14.14,0,0,1,19.39,19.22Z" transform="translate(-0.65 -0.74)"/><path class="cls-3" d="M18.64,19.06a.1.1,0,0,1,.12-.07.12.12,0,0,1,.09.13.11.11,0,0,1-.13.07A.11.11,0,0,1,18.64,19.06Z" transform="translate(-0.65 -0.74)"/><path class="cls-3" d="M17.92,18.79a.09.09,0,0,1,.12,0,.09.09,0,0,1,.05.12.08.08,0,0,1-.12,0A.1.1,0,0,1,17.92,18.79Z" transform="translate(-0.65 -0.74)"/><path class="cls-3" d="M17.25,18.41a.07.07,0,0,1,.11,0,.08.08,0,0,1,0,.11.08.08,0,0,1-.14-.09Z" transform="translate(-0.65 -0.74)"/><path class="cls-3" d="M16.63,17.92a.08.08,0,0,1,.11,0,.07.07,0,0,1-.1.1A.07.07,0,0,1,16.63,17.92Z" transform="translate(-0.65 -0.74)"/></g><path id="S" class="cls-3" d="M67.5,33.63a.49.49,0,0,0-.41.19l-.51-2.4h0a4.33,4.33,0,0,0,2.8,1.17c.59,0,1-.17,1-.44s-.69-.48-1.49-.64c-1.22-.21-2.16-.75-2.16-1.75s1.13-1.87,2.65-1.87a10.35,10.35,0,0,1,1.73.27.37.37,0,0,0,.3-.17l.34,2.24,0,0a3,3,0,0,0-2.26-1.07c-.59,0-1.09.16-1.09.46s.29.42,1.12.58c1.65.22,2.54.89,2.54,1.87s-1,1.84-2.51,1.84A15.27,15.27,0,0,1,67.5,33.63Z" transform="translate(-0.65 -0.74)"/><path id="H" class="cls-3" d="M66.21,33.75v0H63.45v0a.88.88,0,0,0,.53-.9V30.33a1,1,0,0,0-1-1,1.4,1.4,0,0,0-1.16.66v2.82a.88.88,0,0,0,.54.9v0H59.55v0a.88.88,0,0,0,.53-.9V26.64a.87.87,0,0,0-.53-.89v0A8,8,0,0,0,61.77,25v3.46a2.09,2.09,0,0,1,1.54-.61,2.18,2.18,0,0,1,2.36,2.25v2.72A.88.88,0,0,0,66.21,33.75Z" transform="translate(-0.65 -0.74)"/><path id="T" class="cls-3" d="M59,32A1.91,1.91,0,0,1,57,33.93a2.33,2.33,0,0,1-2.44-2.4V29.41H53.4v-.2A4.75,4.75,0,0,0,56,26.29h.12V28h1.38a.88.88,0,0,0,.91-.47h0V29.9h0a.9.9,0,0,0-.91-.47H56.15v1.86a1.1,1.1,0,0,0,1.12,1.19A1.46,1.46,0,0,0,58.7,30.9h0A2.18,2.18,0,0,1,59,32Z" transform="translate(-0.65 -0.74)"/><path id="A" class="cls-3" d="M53.52,33.75v0a2.49,2.49,0,0,1-.84.15,1.31,1.31,0,0,1-1.24-.65,2.76,2.76,0,0,1-1.89.65,1.93,1.93,0,0,1-2.16-1.76c0-1.44,1.23-2.15,3.86-2.15a1.08,1.08,0,0,0-1.19-.73,3.64,3.64,0,0,0-2.42.94l0,0,.72-2.32a.54.54,0,0,0,.42.17c.31,0,.8-.17,1.52-.17A2.49,2.49,0,0,1,53,30.29v2.56A.88.88,0,0,0,53.52,33.75Zm-2.22-1.7V31.1c-1.42,0-2.23.35-2.23,1,0,.33.28.58.79.58A2,2,0,0,0,51.3,32.05Z" transform="translate(-0.65 -0.74)"/><g id="M"><path class="cls-3" d="M37,29.74l1.94,3.17L43,26.22v6.09a1.4,1.4,0,0,1-.91,1.43v0h4.35v0a1.41,1.41,0,0,1-.92-1.43V23.16a1.41,1.41,0,0,1,.92-1.43v0H45.25A26.1,26.1,0,0,1,37,29.74Z" transform="translate(-0.65 -0.74)"/><path class="cls-3" d="M32.31,32.31a1.41,1.41,0,0,1-.92,1.43v0h4.35v0a1.4,1.4,0,0,1-.91-1.43V30.93q-1.23.6-2.52,1.08Z" transform="translate(-0.65 -0.74)"/><path class="cls-4" d="M38.93,28.39,35,21.7H31.39v0a1.41,1.41,0,0,1,.92,1.43V32q1.29-.48,2.52-1.08V26.22L37,29.74a26.1,26.1,0,0,0,8.26-8H42.88Z" transform="translate(-0.65 -0.74)"/></g><path id="C" class="cls-5" d="M60.71,10.81A6.07,6.07,0,0,1,67,4.57,23.43,23.43,0,0,1,70,5a1,1,0,0,0,.7-.26l.88,4.6-.06,0A5.5,5.5,0,0,0,67.18,7a3.65,3.65,0,0,0-3.78,3.81,3.67,3.67,0,0,0,3.78,3.82,5.16,5.16,0,0,0,4.33-2.45l.07,0L70.68,17a.81.81,0,0,0-.69-.31,22.57,22.57,0,0,1-3,.41A6.08,6.08,0,0,1,60.71,10.81Z" transform="translate(-0.65 -0.74)"/><path id="P" class="cls-4" d="M53.89,4.77H47v0a1.41,1.41,0,0,1,.92,1.43v9.15A1.41,1.41,0,0,1,47,16.82v0h4.47v0a1.4,1.4,0,0,1-.91-1.43V12.94h3.34a4.09,4.09,0,1,0,0-8.17Zm-.32,5.82h-3V7.12h3a1.74,1.74,0,1,1,0,3.47Z" transform="translate(-0.65 -0.74)"/><path id="H-2" data-name="H" class="cls-5" d="M42.92,6.24v9.15a1.4,1.4,0,0,0,.91,1.43v0H39.36v0a1.41,1.41,0,0,0,.92-1.43V12H35v3.44a1.4,1.4,0,0,0,.91,1.43v0H31.39v0a1.41,1.41,0,0,0,.92-1.43l0-9.15a1.41,1.41,0,0,0-.92-1.43v0h4.47v0a1.4,1.4,0,0,0-.91,1.43V9.48h5.35V6.24a1.41,1.41,0,0,0-.92-1.43v0h4.47v0A1.4,1.4,0,0,0,42.92,6.24Z" transform="translate(-0.65 -0.74)"/></svg>